<svg xmlns="http://www.w3.org/2000/svg" viewBox="0 0 2048 2048"><path fill="white" fill-rule="evenodd" d="M 867,1507 866,1518 862,1537 862,1548 860,1555 860,1561 858,1567 857,1579 852,1604 852,1615 851,1616 848,1639 867,1639 868,1640 949,1640 950,1641 1173,1642 1170,1614 1169,1613 1169,1607 1168,1606 1167,1593 1165,1585 1164,1565 1163,1564 1156,1511 1151,1510 1070,1510 1069,1509 988,1509 987,1508 Z M 1011,690 1006,697 1002,706 996,714 989,728 986,731 983,739 974,752 973,756 964,769 963,773 954,786 953,790 944,803 942,809 933,822 931,828 925,836 918,850 915,853 912,861 907,867 889,900 883,908 882,912 873,925 871,931 868,934 862,944 861,948 855,956 851,965 844,975 842,981 839,984 829,1003 823,1011 819,1020 813,1028 806,1042 803,1045 800,1053 795,1059 791,1066 791,1068 781,1083 781,1085 772,1098 770,1104 761,1117 759,1123 754,1130 754,1138 767,1163 770,1166 773,1174 781,1186 781,1189 791,1205 795,1215 799,1220 801,1226 811,1244 815,1255 821,1265 822,1270 827,1278 832,1292 842,1312 842,1316 852,1339 852,1343 862,1373 862,1379 865,1389 867,1407 868,1408 870,1440 1156,1443 1156,1423 1157,1422 1157,1414 1161,1393 1164,1385 1167,1369 1173,1355 1176,1343 1185,1323 1185,1319 1187,1317 1190,1308 1193,1304 1195,1296 1205,1277 1207,1270 1210,1266 1218,1248 1222,1243 1228,1229 1232,1224 1238,1211 1245,1201 1246,1197 1256,1182 1258,1176 1261,1173 1270,1156 1275,1150 1277,1144 1277,1136 1275,1129 1268,1119 1262,1106 1259,1103 1252,1088 1248,1083 1245,1075 1237,1063 1235,1057 1231,1052 1225,1039 1217,1027 1215,1021 1208,1011 1201,996 1198,993 1195,985 1187,973 1184,965 1175,952 1175,949 1173,945 1170,942 1150,904 1147,901 1144,893 1139,884 1136,881 1133,873 1125,861 1122,853 1119,850 1112,835 1108,830 1102,817 1095,807 1092,799 1085,789 1082,781 1074,769 1071,761 1063,749 1060,741 1057,738 1050,723 1043,713 1040,705 1033,695 1031,690 1029,690 1028,692 1028,715 1029,716 1032,819 1033,820 1033,844 1034,845 1034,895 1035,896 1035,920 1036,921 1036,946 1037,947 1040,1039 1044,1046 1055,1055 1065,1069 1070,1084 1070,1101 1064,1118 1055,1130 1048,1136 1030,1145 1007,1146 1000,1144 983,1135 972,1123 972,1121 967,1114 963,1103 962,1087 964,1078 969,1067 975,1058 985,1049 989,1047 994,1040 994,1025 995,1024 995,1012 996,1011 998,965 999,964 1001,918 1002,917 1002,902 1003,901 1003,871 1004,870 1008,790 1009,789 1010,758 1011,757 1011,741 1012,740 1012,690 Z M 356,424 352,432 349,442 349,458 353,470 360,481 367,487 377,493 389,496 400,496 414,492 423,486 430,479 435,471 440,467 661,469 662,470 745,470 746,471 811,471 812,472 806,476 799,477 796,479 791,480 779,486 773,487 761,492 757,495 745,499 739,503 731,506 702,521 696,526 690,528 678,537 671,540 647,558 642,560 633,568 631,568 590,601 585,607 581,609 575,616 570,619 548,641 518,674 517,677 509,685 492,709 487,714 487,716 483,720 476,732 467,744 466,748 463,751 457,761 456,765 449,775 446,783 426,822 426,825 421,834 419,841 416,846 416,850 409,865 406,874 406,878 398,899 393,922 386,945 385,957 382,967 377,999 376,1000 375,1020 374,1021 372,1039 367,1044 355,1045 354,1112 420,1113 421,1108 421,1046 409,1045 406,1043 407,1023 408,1022 408,1014 409,1013 411,993 415,974 415,966 418,957 418,953 420,949 420,945 422,941 428,914 435,896 435,892 438,883 445,868 445,864 453,848 456,838 479,792 482,789 486,780 495,767 496,763 501,757 510,742 514,738 518,730 521,728 538,704 546,696 546,694 556,684 558,680 566,673 567,670 599,638 605,634 610,628 614,626 619,620 627,615 635,607 656,592 661,587 663,587 670,581 688,570 689,568 693,567 704,559 713,555 723,548 731,545 746,536 757,532 767,526 770,526 786,518 797,515 812,508 825,505 846,497 854,496 890,486 897,486 925,480 931,480 946,477 954,477 955,476 963,476 964,475 1036,474 1037,475 1077,476 1078,477 1094,478 1101,480 1113,481 1136,486 1143,486 1147,488 1163,491 1178,496 1183,496 1190,499 1196,500 1199,502 1205,503 1211,506 1216,506 1231,513 1245,517 1256,522 1258,524 1266,526 1295,540 1304,546 1307,546 1320,555 1326,557 1329,560 1344,568 1354,576 1358,577 1359,579 1370,587 1372,587 1381,595 1387,598 1394,605 1398,607 1434,638 1460,664 1501,711 1501,713 1509,722 1512,728 1530,752 1532,757 1540,768 1543,775 1549,783 1572,827 1577,840 1579,842 1584,857 1592,874 1592,878 1602,903 1602,908 1612,939 1612,945 1616,958 1622,988 1622,999 1625,1015 1626,1036 1627,1037 1627,1054 1628,1055 1627,1058 1613,1059 1612,1060 1612,1126 1679,1126 1680,1060 1676,1059 1668,1060 1665,1059 1662,1056 1659,1015 1658,1014 1658,1007 1657,1006 1655,989 1652,978 1651,964 1644,935 1641,927 1640,917 1631,891 1631,886 1621,861 1621,857 1615,842 1613,840 1609,827 1602,814 1601,809 1595,799 1587,781 1581,772 1579,766 1573,758 1567,746 1560,737 1557,730 1555,729 1546,714 1540,708 1540,706 1530,694 1529,691 1504,661 1499,657 1496,652 1463,619 1415,578 1413,578 1407,572 1379,553 1375,549 1371,548 1361,540 1348,533 1342,528 1338,527 1333,523 1328,521 1325,518 1320,517 1315,513 1301,507 1285,498 1279,497 1261,487 1257,487 1239,477 1240,476 1315,476 1316,477 1398,477 1399,478 1484,478 1485,479 1606,480 1613,486 1616,492 1625,501 1631,505 1644,509 1661,509 1674,505 1686,496 1691,490 1692,486 1695,482 1698,472 1698,456 1692,439 1681,427 1672,422 1659,418 1646,418 1635,421 1623,428 1615,437 1608,446 1460,446 1459,445 1379,445 1378,444 1298,444 1297,443 1217,443 1216,442 1136,442 1135,441 1055,441 1054,440 973,440 972,439 891,439 890,438 809,438 808,437 726,437 725,436 560,436 559,435 442,434 439,433 435,429 431,422 422,413 412,407 403,405 386,405 377,407 363,416 Z"/></svg>